<svg width="800" height="800" viewBox="0 0 800 800" fill="none" xmlns="http://www.w3.org/2000/svg">
<path d="M750 0C777.614 0 800 22.3858 800 50V750C800 777.614 777.614 800 750 800H50C22.3858 800 0 777.614 0 750V50C0 22.3858 22.3858 0 50 0H750Z" fill="#FEE685"/>
<path d="M380.724 150.156C392.915 147.371 405.557 147.284 417.776 149.896L418.957 150.156L418.96 150.157C432.563 153.267 444.729 160.646 457.028 168.399L462.312 171.733L462.313 171.734L614.724 267.621L619.424 270.569C630.359 277.437 640.973 284.341 649.108 293.882H649.107C656.412 302.446 661.952 312.351 665.434 323.027L665.764 324.063L665.767 324.069C670.032 337.738 669.673 352.315 669.673 367.173V540.343C669.667 552.415 669.593 563.241 668.847 572.384C667.964 583.219 665.972 594.587 660.323 605.694L660.324 605.695C652.099 621.869 638.966 635.032 622.8 643.282C611.692 648.953 600.319 650.952 589.49 651.838C580.356 652.586 569.541 652.659 557.491 652.666H242.19C230.14 652.659 219.326 652.586 210.192 651.838C199.362 650.952 187.99 648.954 176.881 643.283V643.282C160.714 635.031 147.584 621.868 139.359 605.698L139.358 605.699C133.708 594.591 131.717 583.22 130.834 572.384C130.088 563.241 130.014 552.415 130.007 540.343V367.173C130.007 352.316 129.649 337.738 133.915 324.069V324.068C137.374 312.984 143.041 302.714 150.576 293.879C159.873 282.978 172.402 275.519 184.958 267.62L337.368 171.734L337.369 171.733C351.504 162.841 365.175 153.711 380.721 150.157L380.724 150.156ZM465.04 510.567C465.023 510.578 465.006 510.59 464.99 510.601C450.31 520.406 436.145 530.458 419.861 534.368L419.857 534.369C406.693 537.528 392.968 537.529 379.803 534.368H379.801C363.517 530.458 349.353 520.406 334.673 510.601C334.657 510.59 334.64 510.578 334.624 510.567L325.27 504.295L243.714 585.997C244.913 585.998 246.151 586 247.429 586H552.252C553.53 586 554.767 585.998 555.965 585.997L474.402 504.288L465.04 510.567ZM196.673 535.094C196.673 536.353 196.675 537.573 196.675 538.755L268.842 466.459L196.673 418.069V535.094ZM530.831 466.452L603.004 538.755C603.005 537.573 603.007 536.353 603.007 535.094L603.006 418.057L530.831 466.452ZM404.103 215.147C401.295 214.506 398.384 214.505 395.577 215.147C393.722 215.571 391.173 216.647 372.868 228.162L372.867 228.161L220.459 324.049C204.271 334.233 202.428 335.818 201.3 337.14L201.299 337.139C200.62 337.935 200.009 338.786 199.469 339.679L371.701 455.162L375.082 457.413C391.068 468.022 393.551 469.108 395.367 469.544H395.366C398.299 470.248 401.36 470.248 404.299 469.543C406.236 469.077 408.942 467.865 427.962 455.162L600.206 339.669C599.667 338.78 599.059 337.934 598.383 337.143L598.378 337.136C597.253 335.817 595.412 334.234 579.223 324.049L426.813 228.161V228.162C408.507 216.647 405.958 215.572 404.103 215.148V215.147Z" fill="#192E03"/>
</svg>
